<svg xmlns="http://www.w3.org/2000/svg" xmlns:xlink="http://www.w3.org/1999/xlink" width="274.649" height="42.429" viewBox="0 0 274.649 42.429"><defs><clipPath id="a"><path d="M0,0H274.649V-42.429H0Z" fill="none"/></clipPath><clipPath id="b"><rect width="221" height="40" transform="translate(5 -41)" fill="none"/></clipPath><clipPath id="c"><path d="M0,0H275V-43H0Z" fill="none"/></clipPath></defs><g transform="translate(0 42.429)"><g clip-path="url(#a)"><g style="isolation:isolate"><g clip-path="url(#b)"><g clip-path="url(#c)"><path d="M93.337-35.815a2.2,2.2,0,0,0-2.425-1.874,1.945,1.945,0,0,0-2.093,1.653,1.647,1.647,0,0,0,1.432,1.544l1.874.33c2.425.44,3.748,2.095,3.748,3.967,0,2.095-1.763,4.188-4.849,4.188-3.527,0-5.179-2.314-5.4-4.188l2.425-.661a2.64,2.64,0,0,0,2.865,2.535h.111c1.433,0,2.2-.661,2.2-1.653,0-.772-.551-1.433-1.653-1.542L89.7-31.958a3.927,3.927,0,0,1-3.527-3.856A4.461,4.461,0,0,1,90.913-40c3.306,0,4.518,1.984,4.849,3.527Z" fill="#fff"/><path d="M99.619-30.856a2.455,2.455,0,0,0,2.2,2.644h.221a2.394,2.394,0,0,0,2.2-1.542l2.2.772a4.371,4.371,0,0,1-4.407,3.2,4.968,4.968,0,0,1-4.96-4.739v-.219a4.8,4.8,0,0,1,4.628-4.96h.221a4.372,4.372,0,0,1,4.407,3.2l-2.2.772a1.927,1.927,0,0,0-2.093-1.544,2.376,2.376,0,0,0-2.425,2.425c-.111-.221-.111-.111,0,0" fill="#fff"/><path d="M109.316-40.223a1.507,1.507,0,0,1,1.542,1.542,1.507,1.507,0,0,1-1.542,1.544,1.507,1.507,0,0,1-1.542-1.544,1.445,1.445,0,0,1,1.542-1.542m-1.323,4.628h2.535v9.367h-2.535Zm0,9.367" fill="#fff"/><path d="M121.548-28.872a4.181,4.181,0,0,1-4.3,2.976,4.776,4.776,0,0,1-4.848-4.628v-.332a4.835,4.835,0,0,1,4.407-4.958h.11c2.865,0,4.628,1.874,4.628,4.849v.77h-6.722a2.21,2.21,0,0,0,2.314,2.095,1.946,1.946,0,0,0,2.093-1.433Zm-2.425-3.086a1.93,1.93,0,0,0-1.874-1.872h-.219a2.053,2.053,0,0,0-2.095,1.872Z" fill="#fff"/><path d="M125.956-26.227h-2.535v-9.367h2.425v1.1a2.891,2.891,0,0,1,2.646-1.321c2.314,0,3.416,1.653,3.416,3.746v5.951h-2.535v-5.62a1.711,1.711,0,0,0-1.432-1.874h-.332a1.74,1.74,0,0,0-1.763,1.763v.219Z" fill="#fff"/><path d="M136.095-30.856a2.356,2.356,0,0,0,2.2,2.535h.221a2.047,2.047,0,0,0,2.2-1.544l2.2.772a4.37,4.37,0,0,1-4.407,3.2,4.891,4.891,0,0,1-4.96-4.737v-.221a4.8,4.8,0,0,1,4.628-4.958h.221a4.368,4.368,0,0,1,4.407,3.2l-2.2.661a2.123,2.123,0,0,0-2.093-1.653,2.353,2.353,0,0,0-2.425,2.314v.44" fill="#fff"/><path d="M152.955-28.872a4.181,4.181,0,0,1-4.3,2.976,4.776,4.776,0,0,1-4.848-4.628v-.332a4.709,4.709,0,0,1,4.518-4.958h.111c2.865,0,4.628,1.874,4.628,4.849v.77h-6.723a2.212,2.212,0,0,0,2.314,2.095,1.947,1.947,0,0,0,2.095-1.433Zm-2.314-3.086a1.93,1.93,0,0,0-1.874-1.872h-.219a1.975,1.975,0,0,0-2.095,1.872Z" fill="#fff"/><path d="M156.371-29.533a1.741,1.741,0,0,1,1.763,1.763,1.741,1.741,0,0,1-1.763,1.763,1.741,1.741,0,0,1-1.763-1.763,1.741,1.741,0,0,1,1.763-1.763" fill="#fff"/><path d="M94.66-8.375H89.15l-1.1,3.086H85.292l5.179-13.445h3.086L98.737-5.289H95.872ZM90.031-10.8h3.748l-1.874-5.069Z" fill="#fff"/><path d="M100.06-1.653v-13h2.425v1.1a3.26,3.26,0,0,1,2.865-1.323c2.755,0,4.3,2.093,4.3,4.849s-1.763,4.958-4.407,4.958a3.084,3.084,0,0,1-2.644-1.1v4.518Zm4.739-10.91a2.353,2.353,0,0,0-2.314,2.425v.33a2.354,2.354,0,0,0,1.983,2.646,2.421,2.421,0,0,0,2.646-1.984v-.661a2.3,2.3,0,0,0-1.984-2.644.4.4,0,0,0-.33-.111" fill="#fff"/><path d="M111.3-1.653v-13h2.425v1.1a3.26,3.26,0,0,1,2.865-1.323c2.755,0,4.3,2.093,4.3,4.849s-1.763,4.958-4.407,4.958a3.084,3.084,0,0,1-2.644-1.1v4.518Zm4.849-10.91a2.353,2.353,0,0,0-2.314,2.425v.219a2.373,2.373,0,0,0,2.093,2.646h.221A2.354,2.354,0,0,0,118.464-9.7v-.221a2.3,2.3,0,0,0-1.984-2.644Z" fill="#fff"/><path d="M122.651-5.29h2.535V-19.065h-2.535Z" fill="#fff"/><path d="M129.042-19.285a1.507,1.507,0,0,1,1.542,1.542,1.507,1.507,0,0,1-1.542,1.544,1.507,1.507,0,0,1-1.542-1.544,1.506,1.506,0,0,1,1.542-1.542m-1.212,4.628h2.535v9.367H127.83Zm0,9.367" fill="#fff"/><path d="M141.384-7.934a4.181,4.181,0,0,1-4.3,2.976,4.776,4.776,0,0,1-4.848-4.628v-.332a4.709,4.709,0,0,1,4.518-4.958h.11c2.865,0,4.628,1.874,4.628,4.849v.77h-6.723a2.212,2.212,0,0,0,2.314,2.095A1.947,1.947,0,0,0,139.181-8.6ZM139.07-11.02a1.93,1.93,0,0,0-1.874-1.872h-.219a2.053,2.053,0,0,0-2.095,1.872Z" fill="#fff"/><path d="M152.4-6.943a6.788,6.788,0,0,0,.11,1.653H150.09a3.738,3.738,0,0,1-.11-1.1,2.888,2.888,0,0,1-2.644,1.323A4.657,4.657,0,0,1,142.707-9.7v-.332a4.487,4.487,0,0,1,4.188-4.848h.33a2.8,2.8,0,0,1,2.644,1.212v-5.4H152.4Zm-4.739-.33A2.354,2.354,0,0,0,149.98-9.7v-.221A2.262,2.262,0,0,0,148-12.452h-.331a2.327,2.327,0,0,0-2.314,2.314v.219a2.439,2.439,0,0,0,2.095,2.646c0-.111.109-.111.219,0" fill="#fff"/><path d="M162.322-14.656H164.2v2.2h-1.874v3.967c0,.772.33,1.1,1.1,1.1a1.9,1.9,0,0,0,.772-.109V-5.4a3.25,3.25,0,0,1-1.433.221A2.732,2.732,0,0,1,159.787-7.6v-4.849h-1.653v-2.2h.44a1.222,1.222,0,0,0,1.433-1.212v-1.542h2.314Z" fill="#fff"/><path d="M175.326-9.918a4.915,4.915,0,0,1-4.849,4.958,4.915,4.915,0,0,1-4.958-4.848,4.917,4.917,0,0,1,4.849-4.96,4.78,4.78,0,0,1,4.958,4.849m-2.535,0a2.371,2.371,0,0,0-2.093-2.644,2.371,2.371,0,0,0-2.644,2.093v.551a2.371,2.371,0,0,0,2.093,2.644,2.371,2.371,0,0,0,2.644-2.093Z" fill="#fff"/><path d="M180.836-5.29V-18.734h2.644v11.02h5.951V-5.29Z" fill="#fff"/><path d="M192.517-19.285a1.507,1.507,0,0,1,1.542,1.542,1.507,1.507,0,0,1-1.542,1.544,1.507,1.507,0,0,1-1.542-1.544,1.507,1.507,0,0,1,1.542-1.542M191.3-14.656h2.535v9.367H191.3Zm0,9.367" fill="#fff"/><path d="M199.79-15.648v.991h2.093v2.2H199.79V-5.29h-2.535v-7.164h-1.542v-2.2h1.542v-1.1a3.208,3.208,0,0,1,2.976-3.416h.44a2.172,2.172,0,0,1,1.212.221v2.093a1.865,1.865,0,0,0-.77-.111,1.223,1.223,0,0,0-1.323,1.1c-.111,0-.111.111,0,.221" fill="#fff"/><path d="M211.471-7.934a4.181,4.181,0,0,1-4.3,2.976,4.776,4.776,0,0,1-4.848-4.628v-.332a4.835,4.835,0,0,1,4.407-4.958h.111c2.865,0,4.628,1.874,4.628,4.849v.77h-6.722a2.21,2.21,0,0,0,2.314,2.095A1.946,1.946,0,0,0,209.157-8.6Zm-2.314-3.086a1.93,1.93,0,0,0-1.874-1.872h-.219a2.053,2.053,0,0,0-2.095,1.872Z" fill="#fff"/><path d="M214.887-8.6a1.741,1.741,0,0,1,1.763,1.763,1.741,1.741,0,0,1-1.763,1.763,1.741,1.741,0,0,1-1.763-1.763A1.9,1.9,0,0,1,214.887-8.6" fill="#fff"/><path d="M59.947-40,54.989-19.725,49.918-40H35.482v7.494c-1.763-6.5-8.153-8.155-13.885-8.265C14.545-40.883,6.831-37.8,6.5-28.542h9.7c0-2.755,2.534-4.407,4.958-4.407,2.976,0,4.3,1.212,4.409,3.2-.111,1.763-1.1,2.865-4.409,2.865H17.851v6.723h2.976c1.653,0,4.077.881,4.077,3.306.111,2.865-1.874,4.077-4.3,4.188-4.3-.111-5.509-3.527-5.509-6.392H5.178c0,1.983,0,14.656,15.759,14.547,7.494.109,13-3.086,14.545-7.494v6.722h9.7V-27.108l5.4,21.93h8.706l5.4-21.93v21.93H74.6V-40ZM35.593-19.725a7.734,7.734,0,0,0-3.967-3.967,6.723,6.723,0,0,0,3.967-4.628Z" fill="red"/><path d="M220.838-14.656v-4.077h1.1l1.212,2.976,1.212-2.976h.991v4.077h-.77v-2.865l-1.1,2.865h-.77l-1.1-2.865v2.865Z" fill="#fff"/><path d="M216.65-18.734h3.416v.772h-1.323v3.306h-.77v-3.306H216.65Z" fill="#fff"/></g></g></g></g></g></svg>
